<?xml version="1.0" encoding="UTF-8"?>
<svg width="54px" height="46px" viewBox="0 0 54 46" version="1.1" xmlns="http://www.w3.org/2000/svg" xmlns:xlink="http://www.w3.org/1999/xlink">
    <!-- Generator: Sketch 50 (54983) - http://www.bohemiancoding.com/sketch -->
    <title>Logo</title>
    <desc>Created with Sketch.</desc>
    <defs></defs>
    <g id="Symbols" stroke="none" stroke-width="1" fill="none" fill-rule="evenodd">
        <g id="Desktop/Header/3/Men" transform="translate(-30.000000, -41.000000)" fill="#FFFFFE">
            <g id="Logo" transform="translate(30.000000, 41.000000)">
                <path d="M37.9104614,24.4524953 C39.3310715,22.9368108 40.1133264,20.9632321 40.1133264,18.8954837 C40.1133264,16.8279844 39.3310715,14.8544057 37.9104614,13.3384721 C36.4976958,11.8310087 34.5828751,10.9089922 32.5187616,10.7420776 C32.2696952,10.7221475 32.0463689,10.7124316 31.835545,10.7124316 L13.275929,10.7124316 C13.2224876,10.7124316 13.1790971,10.7565269 13.1790971,10.8108365 L13.1790971,15.1125006 C13.1790971,15.1668101 13.2224876,15.2109055 13.275929,15.2109055 L31.8181398,15.2109055 C33.2845919,15.2109055 34.1774067,15.8406968 34.6681853,16.3690937 C35.2864387,17.034261 35.6409171,17.955281 35.6409171,18.8954837 C35.6409171,19.8459006 35.3062954,20.7380219 34.6985831,21.4071752 C34.0016384,22.1747334 33.0115013,22.580311 31.835545,22.580311 L22.2396236,22.580311 C22.1859371,22.580311 22.1425466,22.5362157 22.1425466,22.4819061 L22.1425466,18.0888127 C22.1425466,18.0345031 22.0994012,17.9904078 22.0457147,17.9904078 L17.6890134,17.9904078 C17.635572,17.9904078 17.5921815,18.0345031 17.5921815,18.0888127 L17.5921815,26.98038 C17.5921815,27.0346895 17.635572,27.0787849 17.6890134,27.0787849 L31.6355074,27.0787849 C31.8784452,27.0787849 32.3008285,27.0665777 32.5187616,27.0488897 C34.5828751,26.8822242 36.4976958,25.9602077 37.9104614,24.4524953" id="Fill-1"></path>
                <path d="M36.9865132,2.62628962 C35.5737476,1.11857716 33.6589269,0.196560663 31.5948135,0.0298951579 C31.345747,0.00971592632 31.1224207,0 30.9115968,0 L17.6885231,0 C17.6350817,0 17.5916912,0.0440953579 17.5916912,0.0984048947 L17.5916912,4.40006899 C17.5916912,4.45437853 17.6350817,4.49847388 17.6885231,4.49847388 L30.7115592,4.49847388 C32.1922297,4.5298638 33.1056367,4.89284084 33.815574,5.6706132 C34.560567,6.48700014 34.7169689,7.48749142 34.7169689,8.18330122 C34.7169689,8.25953387 34.7150078,8.33676303 34.7110855,8.41374306 C34.7088792,8.46057881 34.7385416,8.50218291 34.783403,8.51339359 C36.2040132,8.86814946 37.5675047,9.48772661 38.7677303,10.3225489 C38.8226426,10.3609143 38.8988824,10.3335105 38.9162877,10.2682394 C39.0976943,9.58912102 39.1893782,8.88982345 39.1893782,8.18330122 C39.1893782,6.1155528 38.4071233,4.14197413 36.9865132,2.62628962" id="Fill-2"></path>
                <path d="M21.0313395,36.4344746 L21.0313395,38.0276373 C21.0313395,38.0612694 21.0043736,38.0886733 20.9712792,38.0886733 L15.0424687,38.0886733 C15.0211412,38.0886733 15.0015296,38.099884 14.9907433,38.1185685 L10.7080755,45.4907144 C10.6972892,45.5091497 10.6776777,45.5206095 10.6563501,45.5206095 L8.82659444,45.5206095 C8.78026221,45.5206095 8.7513352,45.4692895 8.77486903,45.4286819 L14.0165406,36.4025864 C14.0273269,36.3839019 14.0469384,36.3724421 14.068266,36.3724421 L20.9712792,36.3734386 C21.0043736,36.3734386 21.0313395,36.4008425 21.0313395,36.4344746" id="Fill-3"></path>
                <path d="M14.8951059,43.9072675 L14.8951059,45.4989356 C14.8951059,45.5328167 14.9220717,45.5599715 14.9551662,45.5599715 L20.8734355,45.5599715 C20.9065299,45.5599715 20.9334958,45.5328167 20.9334958,45.4989356 L20.9334958,43.9072675 C20.9334958,43.8733863 20.9065299,43.8462316 20.8734355,43.8462316 L14.9551662,43.8462316 C14.9220717,43.8462316 14.8951059,43.8733863 14.8951059,43.9072675" id="Fill-4"></path>
                <path d="M20.8734355,40.1093368 L14.9551662,40.1093368 C14.9220717,40.1093368 14.8951059,40.1367407 14.8951059,40.1703728 L14.8951059,41.7635356 C14.8951059,41.7971676 14.9220717,41.8245715 14.9551662,41.8245715 L20.8734355,41.8245715 C20.9065299,41.8245715 20.9334958,41.7971676 20.9334958,41.7635356 L20.9334958,40.1703728 C20.9334958,40.1367407 20.9065299,40.1093368 20.8734355,40.1093368" id="Fill-5"></path>
                <path d="M29.5517824,36.4334781 L29.5517824,40.0273743 C29.5517824,40.0612555 29.5248165,40.0884102 29.4917221,40.0884102 L25.2230276,40.0884102 C25.1899331,40.0884102 25.1629672,40.0612555 25.1629672,40.0273743 L25.1629672,36.4544047 C25.1629672,36.4207726 25.1362465,36.3933687 25.1031521,36.3933687 L23.5352103,36.393867 C23.5021159,36.393867 23.47515,36.4212709 23.47515,36.4549029 L23.47515,45.4565841 C23.47515,45.4902161 23.5021159,45.51762 23.5352103,45.51762 L25.1031521,45.51762 C25.1362465,45.51762 25.1629672,45.4902161 25.1629672,45.4565841 L25.1629672,41.8644317 C25.1629672,41.8307997 25.1899331,41.8036449 25.2230276,41.8036449 L29.4917221,41.8036449 C29.5248165,41.8036449 29.5517824,41.8307997 29.5517824,41.8644317 L29.5517824,45.4568332 C29.5517824,45.4904653 29.578258,45.5178692 29.6115976,45.5178692 C29.8660571,45.5178692 30.8615874,45.5186165 31.1797845,45.5186165 C31.2128789,45.5186165 31.2395996,45.4914618 31.2395996,45.4575806 L31.2395996,36.4334781 C31.2395996,36.399846 31.2126338,36.3724421 31.1795393,36.3724421 L29.6118427,36.3724421 C29.5785031,36.3724421 29.5517824,36.399846 29.5517824,36.4334781" id="Fill-6"></path>
                <path d="M35.399205,36.3724421 L33.8312632,36.3724421 C33.7981688,36.3724421 33.7712029,36.399846 33.7712029,36.4334781 L33.7712029,45.4585771 C33.7712029,45.4924583 33.7981688,45.519613 33.8312632,45.519613 L40.2128549,45.519613 C40.2459494,45.519613 40.2729152,45.4924583 40.2729152,45.4585771 L40.2729152,43.8447368 C40.2729152,43.8108556 40.2459494,43.7837009 40.2128549,43.7837009 L35.5190805,43.7837009 C35.485986,43.7837009 35.4592653,43.756297 35.4592653,43.7226649 L35.4592653,36.4334781 C35.4592653,36.399846 35.4322995,36.3724421 35.399205,36.3724421" id="Fill-7"></path>
                <path d="M44.5295977,45.4585771 L44.5295977,36.4334781 C44.5295977,36.399846 44.5033673,36.3724421 44.4702728,36.3724421 C44.1118721,36.3724421 43.1994457,36.3726912 42.9015956,36.3726912 C42.8685011,36.3726912 42.8415353,36.4000951 42.8415353,36.4337272 L42.8415353,45.458328 C42.8415353,45.49196 42.8685011,45.5193639 42.9015956,45.5193639 L44.4695374,45.519613 C44.5026318,45.519613 44.5295977,45.4924583 44.5295977,45.4585771" id="Fill-8"></path>
                <path d="M53.4555402,38.0266408 L53.4555402,36.4337272 C53.4555402,36.399846 53.4288194,36.3726912 53.3954798,36.3726912 L48.4516584,36.3726912 L48.4516584,36.3724421 C48.14817,36.3724421 47.1401374,36.3726912 46.8239015,36.3726912 C46.790807,36.3726912 46.7638412,36.399846 46.7638412,36.4337272 L46.7638412,45.4580788 C46.7638412,45.49196 46.790807,45.5191148 46.8239015,45.5191148 L47.6934277,45.5193639 L47.6934277,45.5198622 L53.3954798,45.5198622 C53.4288194,45.5198622 53.4555402,45.4924583 53.4555402,45.4588262 L53.4555402,43.8656634 C53.4555402,43.8320314 53.4288194,43.8046275 53.3954798,43.8046275 L48.5117187,43.8046275 C48.4786243,43.8046275 48.4516584,43.7774727 48.4516584,43.7438407 L48.4516584,41.8646809 C48.4516584,41.8310488 48.4786243,41.8036449 48.5117187,41.8036449 L53.3954798,41.8036449 C53.4288194,41.8036449 53.4555402,41.7764901 53.4555402,41.7428581 L53.4555402,40.1496953 C53.4555402,40.1160633 53.4288194,40.0886594 53.3954798,40.0886594 L48.5117187,40.0886594 C48.4786243,40.0886594 48.4516584,40.0612555 48.4516584,40.0276234 L48.4516584,38.1487127 C48.4516584,38.1150807 48.4786243,38.0876768 48.5117187,38.0876768 L53.3954798,38.0876768 C53.4288194,38.0876768 53.4555402,38.0602729 53.4555402,38.0266408" id="Fill-9"></path>
                <path d="M6.8742355,42.221928 C6.41826744,43.1758327 5.45607678,43.833277 4.34238705,43.833277 L2.45281619,43.833277 C2.41972174,43.833277 2.39275588,43.8058731 2.39275588,43.7722411 L2.39275588,38.1771131 C2.39275588,38.1434811 2.41972174,38.1163263 2.45281619,38.1163263 L4.34238705,38.1163263 C5.45607678,38.1163263 6.41826744,38.7737707 6.8742355,39.7274262 C7.05417128,40.1043543 7.15566094,40.5276199 7.15566094,40.9748017 C7.15566094,41.4219834 7.05417128,41.8449999 6.8742355,42.221928 Z M6.84604392,37.1641655 C6.19714744,36.7147417 5.42690463,36.4337272 4.59562092,36.3816598 C4.50246616,36.3756807 4.40857596,36.3724421 4.31419548,36.3724421 L0.736807368,36.3724421 C0.703712912,36.3724421 0.676747059,36.399846 0.676747059,36.4334781 L0.676747059,45.4585771 C0.676747059,45.4924583 0.703712912,45.519613 0.736807368,45.519613 L4.31419548,45.519613 C4.5049176,45.519613 4.69245285,45.507655 4.87680123,45.483988 C5.60071181,45.3923095 6.27118097,45.1262426 6.84604392,44.7278896 C8.03474775,43.9045271 8.81528662,42.5178901 8.81528662,40.9461521 C8.81528662,39.3741651 8.03474775,37.987528 6.84604392,37.1641655 Z" id="Fill-10"></path>
            </g>
        </g>
    </g>
</svg>